<?xml version="1.0" encoding="UTF-8" standalone="no"?>
<!DOCTYPE svg PUBLIC "-//W3C//DTD SVG 1.1//EN" "http://www.w3.org/Graphics/SVG/1.1/DTD/svg11.dtd">
<svg width="100%" height="100%" viewBox="0 0 1600 1600" version="1.1" xmlns="http://www.w3.org/2000/svg" xmlns:xlink="http://www.w3.org/1999/xlink" xml:space="preserve" xmlns:serif="http://www.serif.com/" style="fill-rule:evenodd;clip-rule:evenodd;stroke-linecap:round;stroke-linejoin:round;stroke-miterlimit:0;">
    <g id="reticle">
        <circle id="selection-ring-contrast" cx="800" cy="800" r="750" style="fill:none;stroke:#fff;stroke-opacity:0.6;stroke-width:100px;"/>
        <path id="selection-ring" d="M292.569,1385.61c-10.423,-9.041 -11.545,-24.843 -2.504,-35.266c9.041,-10.423 24.844,-11.546 35.267,-2.505c127.22,110.351 293.203,177.166 474.668,177.166c181.465,0 347.448,-66.815 474.668,-177.166c10.423,-9.041 26.226,-7.918 35.267,2.505c9.041,10.423 7.919,26.225 -2.504,35.266c-136.001,117.967 -313.441,189.395 -507.431,189.395c-193.99,0 -371.43,-71.428 -507.431,-189.395Zm1093.04,-78.174c-9.041,10.423 -24.843,11.545 -35.266,2.504c-10.423,-9.041 -11.546,-24.844 -2.505,-35.267c110.351,-127.22 177.166,-293.203 177.166,-474.668c0,-181.465 -66.815,-347.448 -177.166,-474.668c-9.041,-10.423 -7.918,-26.226 2.505,-35.267c10.423,-9.041 26.225,-7.919 35.266,2.504c117.967,136.001 189.395,313.441 189.395,507.431c-0,193.99 -71.428,371.43 -189.395,507.431Zm-78.174,-1093.04c10.423,9.041 11.545,24.843 2.504,35.266c-9.041,10.423 -24.844,11.546 -35.267,2.505c-127.22,-110.351 -293.203,-177.166 -474.668,-177.166c-181.465,0 -347.448,66.815 -474.668,177.166c-10.423,9.041 -26.226,7.918 -35.267,-2.505c-9.041,-10.423 -7.919,-26.225 2.504,-35.266c136.001,-117.967 313.441,-189.395 507.431,-189.395c193.99,0 371.43,71.428 507.431,189.395Zm-1093.04,78.174c9.041,-10.423 24.843,-11.545 35.266,-2.504c10.423,9.041 11.546,24.844 2.505,35.267c-110.351,127.22 -177.166,293.203 -177.166,474.668c0,181.465 66.815,347.448 177.166,474.668c9.041,10.423 7.918,26.226 -2.505,35.267c-10.423,9.041 -26.225,7.919 -35.266,-2.504c-117.967,-136.001 -189.395,-313.441 -189.395,-507.431c0,-193.99 71.428,-371.43 189.395,-507.431Z" style="fill-opacity:0.6;"/>
        <path id="view-centroid" d="M749.792,775l50,25l-50,25l-0,-50Z" style="fill:none;stroke:#000;stroke-opacity:0.6;stroke-width:25px;stroke-linejoin:miter;stroke-miterlimit:10;"/>
        <path d="M850.208,775l-50,25l50,25l0,-50Z" style="fill:none;stroke:#000;stroke-opacity:0.6;stroke-width:25px;stroke-linejoin:miter;stroke-miterlimit:10;"/>
        <path d="M799.792,800l0.416,0" style="fill:none;stroke:#000;stroke-opacity:0.6;stroke-width:25px;"/>
    </g>
</svg>
